# xmcd
#
# Track frame offsets:
#        150
#        18550
#        39157
#        56515
#        77110
#        95297
#        109430
#        124252
#        144160
#        161952
#        183152
#        188670
#
# Disc length: 2788 seconds
#
# Revision: 2
# Processed by: cddbd v1.5.1PL0 Copyright (c) Steve Scherf et al.
# Submitted via: ExactAudioCopy v0.95a5
#
DISCID=990ae20c
DTITLE=The Triffids - Calenture
DYEAR=1987
DGENRE=
TTITLE0=Bury Me Deep In Love
TTITLE1=Kelly's Blues
TTITLE2=A Trick Of The Light
TTITLE3=Hometown Farewell Kiss
TTITLE4=Unmade Love
TTITLE5=Open For You
TTITLE6=Holy Water
TTITLE7=Blinder By The Hour
TTITLE8=Vagabond Holes
TTITLE9=Jerdacuttup Man
TTITLE10=Calenture
TTITLE11=Save What You Can
EXTD=(c) 1987 White Hot Records:  CD38824\nproduced y Gil Norton.\n\n
EXTT0=
EXTT1=
EXTT2=
EXTT3=
EXTT4=
EXTT5=
EXTT6=
EXTT7=
EXTT8=
EXTT9=
EXTT10=
EXTT11=
PLAYORDER=
